<svg width="151" height="85" viewBox="0 0 151 85" fill="none" xmlns="http://www.w3.org/2000/svg">
<path d="M10.9773 56.7315V71.6633H2.64205V36.7542H10.7045V50.2883H10.9943C11.5852 48.6747 12.5511 47.4133 13.892 46.5042C15.2443 45.5951 16.8977 45.1406 18.8523 45.1406C20.6932 45.1406 22.2955 45.5497 23.6591 46.3679C25.0227 47.1747 26.0795 48.3167 26.8295 49.794C27.5909 51.2713 27.9659 52.9986 27.9545 54.9758V71.6633H19.6193V56.6122C19.6307 55.1576 19.267 54.0213 18.5284 53.2031C17.7898 52.3849 16.75 51.9758 15.4091 51.9758C14.5341 51.9758 13.7614 52.169 13.0909 52.5554C12.4318 52.9304 11.9148 53.4701 11.5398 54.1747C11.1761 54.8792 10.9886 55.7315 10.9773 56.7315ZM40.5384 72.1065C38.8679 72.1065 37.3849 71.8281 36.0895 71.2713C34.8054 70.7031 33.7884 69.8508 33.0384 68.7145C32.2997 67.5667 31.9304 66.1292 31.9304 64.402C31.9304 62.9474 32.1861 61.7201 32.6974 60.7201C33.2088 59.7201 33.9134 58.9076 34.8111 58.2826C35.7088 57.6576 36.7429 57.1861 37.9134 56.8679C39.0838 56.5383 40.3338 56.3167 41.6634 56.2031C43.152 56.0667 44.3509 55.9247 45.2599 55.777C46.169 55.6179 46.8281 55.3963 47.2372 55.1122C47.6577 54.8167 47.8679 54.402 47.8679 53.8679V53.7826C47.8679 52.9076 47.5668 52.2315 46.9645 51.7542C46.3622 51.277 45.5497 51.0383 44.527 51.0383C43.4247 51.0383 42.5384 51.277 41.8679 51.7542C41.1974 52.2315 40.7713 52.8906 40.5895 53.7315L32.902 53.4588C33.1293 51.8679 33.7145 50.4474 34.6577 49.1974C35.6122 47.9361 36.919 46.9474 38.5781 46.2315C40.2486 45.5042 42.2543 45.1406 44.5952 45.1406C46.2656 45.1406 47.8054 45.3395 49.2145 45.7372C50.6236 46.1236 51.8509 46.6917 52.8963 47.4417C53.9418 48.1804 54.7486 49.0895 55.3168 50.169C55.8963 51.2486 56.1861 52.4815 56.1861 53.8679V71.6633H48.3452V68.0156H48.1406C47.6747 68.902 47.0781 69.652 46.3509 70.2656C45.6349 70.8792 44.7884 71.3395 43.8111 71.6463C42.8452 71.9531 41.7543 72.1065 40.5384 72.1065ZM43.1122 66.652C44.0099 66.652 44.8168 66.4701 45.5327 66.1065C46.2599 65.7429 46.8395 65.2429 47.2713 64.6065C47.7031 63.9588 47.919 63.2088 47.919 62.3565V59.8679C47.6804 59.9929 47.3906 60.1065 47.0497 60.2088C46.7202 60.3111 46.3565 60.4076 45.9588 60.4986C45.5611 60.5895 45.152 60.669 44.7315 60.7372C44.3111 60.8054 43.9077 60.8679 43.5213 60.9247C42.7372 61.0497 42.0668 61.2429 41.5099 61.5042C40.9645 61.7656 40.544 62.1065 40.2486 62.527C39.9645 62.9361 39.8224 63.4247 39.8224 63.9929C39.8224 64.8565 40.1293 65.5156 40.7429 65.9701C41.3679 66.4247 42.1577 66.652 43.1122 66.652ZM61.2827 71.6633V36.7542H69.6179V49.9645H69.7884C70.1293 49.169 70.6122 48.402 71.2372 47.6633C71.8736 46.9247 72.6804 46.3224 73.6577 45.8565C74.6463 45.3792 75.8281 45.1406 77.2031 45.1406C79.0213 45.1406 80.7202 45.6179 82.2997 46.5724C83.8906 47.527 85.1747 48.9986 86.152 50.9872C87.1293 52.9758 87.6179 55.5099 87.6179 58.5895C87.6179 61.5554 87.1463 64.0383 86.2031 66.0383C85.2713 68.0383 84.0099 69.5383 82.419 70.5383C80.8395 71.5383 79.0838 72.0383 77.152 72.0383C75.8338 72.0383 74.6918 71.8224 73.7259 71.3906C72.7599 70.9588 71.9474 70.3906 71.2884 69.6861C70.6406 68.9815 70.1406 68.2258 69.7884 67.419H69.5327V71.6633H61.2827ZM69.4474 58.5724C69.4474 59.9815 69.6349 61.2088 70.0099 62.2542C70.3963 63.2997 70.9474 64.1122 71.6634 64.6917C72.3906 65.2599 73.2599 65.544 74.2713 65.544C75.294 65.544 76.1634 65.2599 76.8793 64.6917C77.5952 64.1122 78.1349 63.2997 78.4986 62.2542C78.8736 61.2088 79.0611 59.9815 79.0611 58.5724C79.0611 57.1633 78.8736 55.9417 78.4986 54.9076C78.1349 53.8736 77.5952 53.0724 76.8793 52.5042C76.1747 51.9361 75.3054 51.652 74.2713 51.652C73.2486 51.652 72.3793 51.9304 71.6634 52.4872C70.9474 53.044 70.3963 53.8395 70.0099 54.8736C69.6349 55.9076 69.4474 57.1406 69.4474 58.5724ZM91.9858 71.6633V45.4815H100.321V71.6633H91.9858ZM96.1619 42.4304C94.9915 42.4304 93.9858 42.044 93.1449 41.2713C92.304 40.4872 91.8835 39.544 91.8835 38.4417C91.8835 37.3508 92.304 36.419 93.1449 35.6463C93.9858 34.8622 94.9915 34.4701 96.1619 34.4701C97.3438 34.4701 98.3494 34.8622 99.179 35.6463C100.02 36.419 100.44 37.3508 100.44 38.4417C100.44 39.544 100.02 40.4872 99.179 41.2713C98.3494 42.044 97.3438 42.4304 96.1619 42.4304ZM120.405 45.4815V51.6179H103.888V45.4815H120.405ZM107.348 39.2088H115.683V63.4304C115.683 63.9417 115.763 64.3565 115.922 64.6747C116.092 64.9815 116.337 65.2031 116.655 65.3395C116.973 65.4645 117.354 65.527 117.797 65.527C118.115 65.527 118.45 65.4986 118.803 65.4417C119.166 65.3736 119.439 65.3167 119.621 65.2713L120.882 71.2883C120.484 71.402 119.922 71.544 119.195 71.7145C118.479 71.8849 117.621 71.9929 116.621 72.0383C114.666 72.1292 112.99 71.902 111.592 71.3565C110.206 70.7997 109.143 69.9361 108.405 68.7656C107.678 67.5951 107.325 66.1236 107.348 64.3508V39.2088ZM147.188 53.4758L139.534 53.6804C139.455 53.1349 139.239 52.652 138.886 52.2315C138.534 51.7997 138.074 51.4645 137.506 51.2258C136.949 50.9758 136.301 50.8508 135.562 50.8508C134.597 50.8508 133.773 51.044 133.091 51.4304C132.42 51.8167 132.091 52.3395 132.102 52.9986C132.091 53.5099 132.295 53.9531 132.716 54.3281C133.148 54.7031 133.915 55.0042 135.017 55.2315L140.062 56.1861C142.676 56.6861 144.619 57.5156 145.892 58.6747C147.176 59.8338 147.824 61.3679 147.835 63.277C147.824 65.0724 147.29 66.6349 146.233 67.9645C145.188 69.294 143.756 70.3281 141.938 71.0667C140.119 71.794 138.04 72.1576 135.699 72.1576C131.96 72.1576 129.011 71.3906 126.852 69.8565C124.705 68.3111 123.477 66.2429 123.17 63.652L131.403 63.4474C131.585 64.402 132.057 65.1292 132.818 65.6292C133.58 66.1292 134.551 66.3792 135.733 66.3792C136.801 66.3792 137.67 66.1804 138.341 65.7826C139.011 65.3849 139.352 64.8565 139.364 64.1974C139.352 63.6065 139.091 63.1349 138.58 62.7826C138.068 62.419 137.267 62.1349 136.176 61.9304L131.608 61.0611C128.983 60.5838 127.028 59.7031 125.744 58.419C124.46 57.1236 123.824 55.4758 123.835 53.4758C123.824 51.7258 124.29 50.2315 125.233 48.9929C126.176 47.7429 127.517 46.7883 129.256 46.1292C130.994 45.4701 133.045 45.1406 135.409 45.1406C138.955 45.1406 141.75 45.8849 143.795 47.3736C145.841 48.8508 146.972 50.8849 147.188 53.4758Z" fill="white"/>
<rect x="0.5" y="1.16333" width="15" height="15" rx="3.5" fill="#18181B" stroke="#27272A"/>
<rect x="20.5" y="1.16333" width="15" height="15" rx="3.5" fill="#7F1D1D" stroke="#B91C1C"/>
<rect x="40.5" y="1.16333" width="15" height="15" rx="3.5" fill="#991B1B" stroke="#DC2626"/>
<rect x="60.5" y="1.16333" width="15" height="15" rx="3.5" fill="#B91C1C" stroke="#EF4444"/>
<rect x="80.5" y="1.16333" width="15" height="15" rx="3.5" fill="#DC2626" stroke="#F87171"/>
<rect x="100.5" y="1.16333" width="15" height="15" rx="3.5" fill="#EF4444" stroke="#FCA5A5"/>
</svg>
